<svg width="55" height="32" viewBox="0 0 221 124" fill="none" xmlns="http://www.w3.org/2000/svg">
<path d="M153.123 94.477H142.59V105.01H153.123V94.477Z" fill="black"/>
<path d="M220.49 81.869H209.957V92.402H220.49V81.869Z" fill="#DE0029"/>
<path d="M20.514 47.524H0.129997V67.902H20.514V47.524Z" fill="#75010E"/>
<path d="M61.12 37.513H30.722V67.902H61.12V37.513Z" fill="#980117"/>
<path d="M117.069 22.173H71.327V67.902H117.069V22.173Z" fill="#BB0020"/>
<path d="M195.146 0.0500031H127.277V67.903H195.146V0.0500031Z" fill="#DE0029"/>
<path d="M3.319 81.869C1.558 81.869 0.129997 83.297 0.129997 85.058V120.491C0.129997 122.253 1.558 123.68 3.319 123.68H50.175C51.936 123.68 53.364 122.252 53.364 120.491V106.318C53.364 104.556 51.936 103.129 50.175 103.129H26.873V109.508C26.873 109.508 42.235 109.508 46.987 109.508C46.987 112.226 46.987 114.584 46.987 117.303C41.852 117.303 11.644 117.303 6.508 117.303C6.508 112.543 6.508 93.007 6.508 88.248C11.643 88.248 41.852 88.248 46.987 88.248C46.987 91.373 46.987 95.688 46.987 95.688H53.365V85.058C53.365 83.296 51.937 81.869 50.176 81.869H3.319Z" fill="black"/>
<path d="M71.436 81.869C69.675 81.869 68.247 83.297 68.247 85.058V101.731C68.247 103.429 69.577 104.829 71.272 104.916C71.272 104.916 103.544 106.58 108.723 106.848C108.723 109.956 108.723 114.069 108.723 117.303C103.774 117.303 79.575 117.303 74.625 117.303C74.625 114.178 74.625 109.862 74.625 109.862H68.247V120.492C68.247 122.254 69.675 123.681 71.436 123.681H111.913C113.675 123.681 115.102 122.253 115.102 120.492V103.819C115.102 102.122 113.772 100.721 112.077 100.634C112.077 100.634 79.805 98.97 74.626 98.703C74.626 95.594 74.626 91.482 74.626 88.248C79.575 88.248 103.774 88.248 108.724 88.248C108.724 91.373 108.724 95.688 108.724 95.688H115.103V85.058C115.103 83.296 113.675 81.869 111.914 81.869H71.436Z" fill="black"/>
<path d="M191.908 81.869H133.172C131.41 81.869 129.983 83.297 129.983 85.058V123.68H136.362C136.362 123.68 136.362 93.624 136.362 88.247C138.806 88.247 148.739 88.247 159.352 88.247C159.352 99.676 159.352 123.68 159.352 123.68H165.729V88.247C176.342 88.247 186.275 88.247 188.719 88.247C188.719 93.624 188.719 123.68 188.719 123.68H195.097V85.059C195.097 83.297 193.669 81.869 191.908 81.869Z" fill="black"/>
<path d="M153.123 113.147H142.59V123.68H153.123V113.147Z" fill="black"/>
<path d="M182.49 113.147H171.957V123.68H182.49V113.147Z" fill="black"/>
<path d="M208.804 115.79V116.728H206.148V123.681H205.07V116.728H202.414V115.79H208.804Z" fill="black"/>
<path d="M209.765 115.79H211.291L213.558 122.461L215.812 115.79H217.328V123.681H216.312V119.024C216.312 118.863 216.316 118.596 216.324 118.223C216.332 117.851 216.336 117.452 216.336 117.026L214.081 123.681H213.021L210.75 117.026V117.267C210.75 117.46 210.755 117.755 210.766 118.151C210.777 118.547 210.782 118.838 210.782 119.024V123.681H209.766V115.79H209.765Z" fill="black"/>
</svg>
